<?xml version="1.0" standalone="no"?><!DOCTYPE svg PUBLIC "-//W3C//DTD SVG 1.1//EN" "http://www.w3.org/Graphics/SVG/1.1/DTD/svg11.dtd"><svg t="1646702517252" class="icon" viewBox="0 0 1059 1024" version="1.1" xmlns="http://www.w3.org/2000/svg" p-id="4875" xmlns:xlink="http://www.w3.org/1999/xlink" width="206.8359375" height="200"><defs><style type="text/css"></style></defs><path d="M466.099395 50.760079c-17.190747 28.286054-403.49187 785.977528-423.030271 824.305618-5.219828 8.650364-21.945274 38.65803-21.945275 68.449967 0 10.308526 2.013483 20.562062 7.220622 29.863847 7.520952 13.455651 24.546728 29.483146 62.887508 29.483146l869.604759-1.852743c54.211765 0 70.057369-28.878255 74.663846-46.090152 1.531262-5.718969 2.203833-11.987839 2.203834-18.480899 0-25.73536-10.536946-54.799736-20.227892-67.730866l2.034633 2.085394c-17.664508-32.31725-432.877726-791.730337-449.988103-819.859881-15.892135-26.086451-38.040449-29.779247-50.244018-29.567747-21.513814-1.518572-40.806874 9.043754-53.179643 29.394316z" fill="#FFBA2E" p-id="4876"></path><path d="M515.340902 0.00423c-12.338929 0-24.085658 2.876404-34.910245 8.544613-13.07072 6.839921-23.967217 17.347257-32.406081 31.221679-16.970787 27.909584-354.178453 689.118837-423.444811 824.999339a213.606874 213.606874 0 0 0-16.103635 34.664904c-4.551487 12.79577-7.300991 25.041639-8.159683 36.394977-1.366292 17.973298 1.852743 34.076933 9.572505 47.862525 7.639392 13.658691 19.572241 24.470588 34.508394 31.285129 13.303371 6.065829 28.624455 9.014144 46.834633 9.014144h0.09306l869.549769-1.848513h-0.08883c51.44534 0 75.590218-22.681295 86.787045-41.707865 7.905882-13.438731 11.759418-29.127826 11.454858-46.627363-0.20304-11.476008-2.216523-23.810707-6.010839-36.682617-5.680899-19.30998-13.734831-34.296894-14.999604-36.585327l0.05076 0.09306C993.763109 779.590218 604.661721 67.993126 587.602104 39.935492l-0.01269-0.02115-0.02538-0.02115c-8.434633-13.849042-19.33536-24.335228-32.38916-31.158228a74.426966 74.426966 0 0 0-34.182684-8.523464A76.87191 76.87191 0 0 0 515.340902 0.00423zM42.307722 943.841375c-0.05922-27.038202 19.32267-58.627892 19.322671-58.627892s405.479974-795.410443 422.53536-823.463847c9.741705-16.019035 22.237145-19.44534 31.175149-19.44534 1.400132 0 2.715664 0.0846 3.916986 0.21573 0.334171-0.00846 0.676801-0.01269 1.027891-0.01269 8.938004 0 21.412293 3.417845 31.175149 19.411501 17.042697 28.032254 449.501652 819.00965 449.501652 819.009649s15.735625 28.336814 15.782155 54.677066c0.05076 22.875876-11.738268 44.254329-55.958757 44.254329l-869.558229 1.848513c-37.972769-0.00846-48.877726-17.656048-48.920027-37.867019z" fill="#B85900" p-id="4877"></path><path d="M543.808846 727.692267c23.298876-0.28764 41.948976-20.866623 41.635955-45.942102l24.504428-289.704692c-0.461071-37.063318-32.334171-66.707204-71.174091-66.220754-38.848381 0.486451-69.964309 30.925578-69.503238 67.984666l31.763119 288.998282c0.31725 25.075479 19.46226 45.172241 42.773827 44.8846z m-0.27918 41.361005c-31.268209 0.393391-56.301388 24.758229-55.929148 54.414805 0.372241 29.652346 26.006081 53.378453 57.27429 52.980832 31.255519-0.393391 56.284468-24.753999 55.907997-54.402115-0.372241-29.656576-26.006081-53.386913-57.253139-52.993522z" fill="#FFFFFF" p-id="4878"></path></svg>